<svg xmlns="http://www.w3.org/2000/svg" viewBox="0 0 64 64" shape-rendering="crispEdges">
  <rect width="64" height="64" fill="#05060c"/>
  <!-- 地面 -->
  <rect x="4" y="52" width="56" height="4" fill="#2a3441"/>
  <!-- 营造物：双层楼阁 -->
  <rect x="12" y="28" width="20" height="24" fill="#b07a3a"/>
  <rect x="8" y="20" width="28" height="10" fill="#8a5a2b"/>
  <rect x="12" y="10" width="20" height="10" fill="#d9a441"/>
  <rect x="18" y="2" width="8" height="8" fill="#f0b429"/>
  <!-- 门窗 -->
  <rect x="16" y="42" width="6" height="10" fill="#6d431f"/>
  <rect x="24" y="42" width="6" height="10" fill="#6d431f"/>
  <rect x="19" y="12" width="6" height="5" fill="#6d431f"/>
  <!-- 卡牌 -->
  <rect x="40" y="8" width="19" height="28" fill="#e9e2cf"/>
  <rect x="40" y="8" width="3" height="28" fill="#3a4453"/>
  <rect x="44" y="13" width="11" height="7" fill="#d9753f"/>
  <rect x="46" y="9" width="7" height="4" fill="#d9753f"/>
  <rect x="44" y="23" width="11" height="9" fill="#b07a3a"/>
  <rect x="44" y="23" width="11" height="2" fill="#d9753f"/>
  <rect x="44" y="30" width="11" height="2" fill="#d9753f"/>
</svg>
